<svg viewBox="0 0 191 136" fill="none" xmlns="http://www.w3.org/2000/svg">
<rect width="191" height="136" rx="8" fill="#212121"/>
<path d="M25.2 106.08C24.24 103.92 24.2 101.8 25.08 99.72L51.96 30.48C52.6 28.96 53.6 27.72 54.96 26.76C56.32 25.8 57.84 25.28 59.52 25.2C61.28 24.88 63 25.2 64.68 26.16C66.44 27.04 67.76 28.32 68.64 30L77.52 52.08L87.96 77.88L96.24 99.48C97.12 101.64 97.08 103.8 96.12 105.96C95.24 108.04 93.68 109.52 91.44 110.4C89.28 111.28 87.12 111.28 84.96 110.4C82.8 109.44 81.28 107.92 80.4 105.84L73.44 90C64.48 89.76 55.6 89.84 46.8 90.24L40.92 106.08C39.96 108.16 38.4 109.68 36.24 110.64C34.08 111.52 31.92 111.52 29.76 110.64C27.6 109.68 26.08 108.16 25.2 106.08ZM53.76 73.08C56.8 73.08 61.2 73.08 66.96 73.08L60.6 55.8L53.76 73.08ZM116.319 111.24C113.599 111.16 111.399 110.04 109.719 107.88C108.119 106.28 107.279 104.32 107.199 102C107.119 93.84 106.959 82.28 106.719 67.32L106.359 33.6C106.359 31.28 107.159 29.32 108.759 27.72C110.359 26.04 112.319 25.2 114.639 25.2C116.959 25.12 118.919 25.88 120.519 27.48C122.199 29.08 123.079 31.04 123.159 33.36L123.519 64.8L123.879 95.04C127.799 95.04 133.479 95 140.919 94.92C148.439 94.84 153.959 94.8 157.479 94.8C159.799 94.8 161.759 95.6 163.359 97.2C165.039 98.72 165.879 100.6 165.879 102.84C165.879 105.08 165.039 107.04 163.359 108.72C161.759 110.32 159.799 111.12 157.479 111.12C154.839 111.12 147.999 111.16 136.959 111.24C125.839 111.32 118.959 111.32 116.319 111.24Z" fill="#FCF6F5"/>
</svg>
