<svg width="513" height="299" viewBox="0 0 513 299" fill="none" xmlns="http://www.w3.org/2000/svg">
<path d="M512.819 220.86C512.819 209.279 498.316 198.303 476.081 191.497C481.212 168.834 478.931 150.804 468.883 145.031C466.566 143.677 463.858 143.036 460.901 143.036V150.982C462.54 150.982 463.858 151.303 464.963 151.908C469.809 154.688 471.911 165.271 470.272 178.883C469.88 182.233 469.239 185.76 468.455 189.359C461.471 187.649 453.845 186.331 445.828 185.475C441.017 178.883 436.028 172.897 431.004 167.659C442.621 156.862 453.524 150.946 460.936 150.946V143C451.137 143 438.309 149.984 425.338 162.1C412.367 150.055 399.539 143.143 389.74 143.143V151.089C397.116 151.089 408.056 156.968 419.672 167.694C414.684 172.932 409.695 178.883 404.956 185.475C396.902 186.331 389.277 187.649 382.293 189.395C381.473 185.832 380.867 182.375 380.44 179.061C378.765 165.449 380.832 154.866 385.642 152.051C386.711 151.41 388.101 151.124 389.74 151.124V143.178C386.747 143.178 384.039 143.82 381.687 145.174C371.674 150.946 369.429 168.941 374.596 191.533C352.432 198.375 338 209.314 338 220.86C338 232.441 352.503 243.416 374.738 250.222C369.607 272.885 371.888 290.915 381.936 296.688C384.253 298.042 386.961 298.684 389.954 298.684C399.753 298.684 412.581 291.699 425.552 279.584C438.523 291.628 451.351 298.541 461.15 298.541C464.143 298.541 466.851 297.9 469.203 296.546C479.216 290.773 481.461 272.778 476.294 250.186C498.387 243.38 512.819 232.405 512.819 220.86ZM466.424 197.092C465.105 201.689 463.466 206.428 461.613 211.167C460.152 208.317 458.62 205.466 456.945 202.615C455.306 199.764 453.56 196.985 451.814 194.277C456.874 195.025 461.756 195.952 466.424 197.092ZM450.104 235.042C447.324 239.852 444.473 244.413 441.516 248.654C436.206 249.117 430.826 249.367 425.409 249.367C420.029 249.367 414.648 249.117 409.374 248.689C406.417 244.449 403.53 239.924 400.751 235.149C398.043 230.481 395.584 225.741 393.339 220.966C395.548 216.192 398.043 211.417 400.715 206.749C403.495 201.938 406.345 197.377 409.303 193.137C414.612 192.673 419.993 192.424 425.409 192.424C430.79 192.424 436.171 192.673 441.445 193.101C444.402 197.341 447.289 201.867 450.068 206.642C452.776 211.31 455.235 216.049 457.48 220.824C455.235 225.599 452.776 230.374 450.104 235.042ZM461.613 230.409C463.537 235.184 465.177 239.959 466.531 244.592C461.863 245.732 456.945 246.694 451.85 247.442C453.596 244.699 455.342 241.883 456.981 238.997C458.62 236.146 460.152 233.26 461.613 230.409ZM425.481 268.431C422.167 265.01 418.853 261.197 415.575 257.028C418.782 257.17 422.06 257.277 425.374 257.277C428.723 257.277 432.037 257.206 435.28 257.028C432.073 261.197 428.759 265.01 425.481 268.431ZM398.969 247.442C393.909 246.694 389.027 245.768 384.359 244.627C385.678 240.031 387.317 235.291 389.17 230.552C390.631 233.403 392.163 236.253 393.838 239.104C395.513 241.955 397.223 244.734 398.969 247.442ZM425.303 173.289C428.616 176.709 431.93 180.522 435.209 184.691C432.002 184.549 428.723 184.442 425.409 184.442C422.06 184.442 418.746 184.513 415.503 184.691C418.71 180.522 422.024 176.709 425.303 173.289ZM398.934 194.277C397.188 197.021 395.441 199.836 393.802 202.722C392.163 205.573 390.631 208.423 389.17 211.274C387.246 206.499 385.607 201.724 384.253 197.092C388.921 195.987 393.838 195.025 398.934 194.277ZM366.685 238.89C354.071 233.51 345.911 226.454 345.911 220.86C345.911 215.265 354.071 208.174 366.685 202.829C369.75 201.511 373.099 200.335 376.556 199.23C378.587 206.214 381.259 213.483 384.573 220.931C381.295 228.343 378.658 235.576 376.663 242.525C373.135 241.42 369.785 240.209 366.685 238.89ZM385.856 289.811C381.01 287.031 378.907 276.448 380.547 262.836C380.939 259.486 381.58 255.959 382.364 252.36C389.348 254.07 396.974 255.389 404.991 256.244C409.802 262.836 414.791 268.823 419.815 274.061C408.198 284.858 397.294 290.773 389.883 290.773C388.279 290.737 386.925 290.417 385.856 289.811ZM470.379 262.658C472.054 276.27 469.987 286.853 465.177 289.668C464.108 290.31 462.718 290.595 461.079 290.595C453.703 290.595 442.763 284.715 431.146 273.989C436.135 268.751 441.124 262.8 445.863 256.208C453.916 255.353 461.542 254.035 468.526 252.289C469.346 255.888 469.987 259.344 470.379 262.658ZM484.098 238.89C481.034 240.209 477.684 241.385 474.228 242.489C472.196 235.505 469.524 228.236 466.21 220.788C469.488 213.377 472.125 206.143 474.121 199.194C477.648 200.299 480.998 201.511 484.134 202.829C496.748 208.21 504.908 215.265 504.908 220.86C504.873 226.454 496.712 233.545 484.098 238.89Z" fill="#61DAFB"/>
<path d="M425.374 237.144C434.368 237.144 441.658 229.853 441.658 220.86C441.658 211.866 434.368 204.575 425.374 204.575C416.38 204.575 409.089 211.866 409.089 220.86C409.089 229.853 416.38 237.144 425.374 237.144Z" fill="#61DAFB"/>
<g clip-path="url(#clip0)">
<path d="M24.6411 184H36.0711V236.892C30.2077 238.005 25.9028 238.45 21.2273 238.45C7.2735 238.45 0 232.144 0 220.048C0 208.399 7.71927 200.831 19.6683 200.831C21.5236 200.831 22.9337 200.979 24.6411 201.424V184ZM24.6411 210.624C23.3053 210.179 22.192 210.031 20.782 210.031C14.9928 210.031 11.6526 213.593 11.6526 219.825C11.6526 225.91 14.8443 229.249 20.7078 229.249C21.9689 229.249 23.0084 229.175 24.6411 228.953V210.624Z" fill="#092E20"/>
<path d="M54.2542 201.647V228.136C54.2542 237.263 53.5862 241.64 51.5824 245.425C49.7266 249.061 47.277 251.361 42.2304 253.884L31.6168 248.838C36.6639 246.464 39.113 244.387 40.6715 241.195C42.3047 237.93 42.8246 234.146 42.8246 224.203V201.647H54.2542ZM42.8246 184.061H54.2542V195.785H42.8246V184.061Z" fill="#092E20"/>
<path d="M61.158 204.243C66.2056 201.87 71.0295 200.831 76.2992 200.831C82.1626 200.831 86.0218 202.388 87.7292 205.431C88.6935 207.137 88.9904 209.363 88.9904 214.113V237.337C83.8686 238.079 77.4119 238.599 72.6622 238.599C63.0881 238.599 58.7827 235.258 58.7827 227.839C58.7827 219.825 64.4977 216.115 78.5256 214.927V212.405C78.5256 210.327 77.4866 209.586 74.5918 209.586C70.3616 209.586 65.6114 210.773 61.1575 213.074V204.243H61.158ZM79.0452 222.423C71.4743 223.165 69.0252 224.352 69.0252 227.32C69.0252 229.546 70.4358 230.585 73.5528 230.585C75.2602 230.585 76.8182 230.437 79.0452 230.066V222.423Z" fill="#092E20"/>
<path d="M94.5574 203.427C101.311 201.647 106.877 200.831 112.518 200.831C118.382 200.831 122.612 202.166 125.137 204.763C127.512 207.211 128.253 209.882 128.253 215.597V238.005H116.823V216.042C116.823 211.664 115.339 210.031 111.257 210.031C109.699 210.031 108.289 210.179 105.987 210.847V238.005H94.5574V203.427Z" fill="#092E20"/>
<path d="M132.696 244.238C136.705 246.315 140.713 247.279 144.943 247.279C152.438 247.279 155.63 244.238 155.63 236.966C155.63 236.892 155.63 236.817 155.63 236.743C153.404 237.856 151.177 238.301 148.209 238.301C138.189 238.301 131.805 231.697 131.805 221.235C131.805 208.249 141.232 200.905 157.93 200.905C162.829 200.905 167.357 201.423 172.849 202.536L168.936 210.779C165.892 210.185 168.692 210.699 166.392 210.477V211.664L166.54 216.486L166.614 222.72C166.688 224.277 166.688 225.836 166.763 227.394C166.763 228.804 166.763 229.472 166.763 230.511C166.763 240.306 165.946 244.906 163.497 248.69C159.935 254.255 153.774 257 145.017 257C140.563 257 136.705 256.333 132.696 254.774V244.238H132.696ZM155.408 210.105C155.26 210.105 155.112 210.105 155.037 210.105H154.221C151.995 210.031 149.397 210.624 147.615 211.737C144.87 213.296 143.459 216.116 143.459 220.122C143.459 225.836 146.28 229.101 151.326 229.101C152.885 229.101 154.147 228.803 155.631 228.359V227.542V224.426C155.631 223.091 155.557 221.606 155.557 220.048L155.483 214.78L155.409 210.996V210.105H155.408Z" fill="#092E20"/>
<path d="M190.593 200.682C202.023 200.682 209 207.88 209 219.529C209 231.476 201.727 238.97 190.148 238.97C178.718 238.97 171.667 231.772 171.667 220.197C171.667 208.176 178.941 200.682 190.593 200.682ZM190.37 229.768C194.749 229.768 197.347 226.132 197.347 219.825C197.347 213.593 194.824 209.883 190.445 209.883C185.917 209.883 183.319 213.519 183.319 219.825C183.319 226.133 185.917 229.768 190.37 229.768Z" fill="#092E20"/>
</g>
<path d="M277.262 217.652H301.402V225.738H277.262V250.699H269.117V225.738H245.094V217.652H269.117V192.574H277.262V217.652Z" fill="#212121"/>
<rect x="161" width="191" height="136" rx="16" fill="#212121"/>
<path d="M186.2 106.08C185.24 103.92 185.2 101.8 186.08 99.72L212.96 30.48C213.6 28.96 214.6 27.72 215.96 26.76C217.32 25.8 218.84 25.28 220.52 25.2C222.28 24.88 224 25.2 225.68 26.16C227.44 27.04 228.76 28.32 229.64 30L238.52 52.08L248.96 77.88L257.24 99.48C258.12 101.64 258.08 103.8 257.12 105.96C256.24 108.04 254.68 109.52 252.44 110.4C250.28 111.28 248.12 111.28 245.96 110.4C243.8 109.44 242.28 107.92 241.4 105.84L234.44 90C225.48 89.76 216.6 89.84 207.8 90.24L201.92 106.08C200.96 108.16 199.4 109.68 197.24 110.64C195.08 111.52 192.92 111.52 190.76 110.64C188.6 109.68 187.08 108.16 186.2 106.08ZM214.76 73.08C217.8 73.08 222.2 73.08 227.96 73.08L221.6 55.8L214.76 73.08ZM277.319 111.24C274.599 111.16 272.399 110.04 270.719 107.88C269.119 106.28 268.279 104.32 268.199 102C268.119 93.84 267.959 82.28 267.719 67.32L267.359 33.6C267.359 31.28 268.159 29.32 269.759 27.72C271.359 26.04 273.319 25.2 275.639 25.2C277.959 25.12 279.919 25.88 281.519 27.48C283.199 29.08 284.079 31.04 284.159 33.36L284.519 64.8L284.879 95.04C288.799 95.04 294.479 95 301.919 94.92C309.439 94.84 314.959 94.8 318.479 94.8C320.799 94.8 322.759 95.6 324.359 97.2C326.039 98.72 326.879 100.6 326.879 102.84C326.879 105.08 326.039 107.04 324.359 108.72C322.759 110.32 320.799 111.12 318.479 111.12C315.839 111.12 308.999 111.16 297.959 111.24C286.839 111.32 279.959 111.32 277.319 111.24Z" fill="#FCF6F5"/>
<defs>
<clipPath id="clip0">
<rect width="209" height="73" fill="white" transform="translate(0 184)"/>
</clipPath>
</defs>
</svg>
